<mxfile host="app.diagrams.net" agent="Mozilla/5.0 (Windows NT 10.0; Win64; x64) AppleWebKit/537.36 (KHTML, like Gecko) Chrome/129.0.0.0 Safari/537.36" version="24.8.2">
  <diagram id="C5RBs43oDa-KdzZeNtuy" name="Page-1">
    <mxGraphModel dx="1760" dy="868" grid="1" gridSize="10" guides="1" tooltips="1" connect="1" arrows="1" fold="1" page="1" pageScale="1" pageWidth="827" pageHeight="1169" math="0" shadow="0">
      <root>
        <mxCell id="WIyWlLk6GJQsqaUBKTNV-0" />
        <mxCell id="WIyWlLk6GJQsqaUBKTNV-1" parent="WIyWlLk6GJQsqaUBKTNV-0" />
        <mxCell id="zkfFHV4jXpPFQw0GAbJ--0" value="enum AnimalsClasses" style="swimlane;fontStyle=3;align=center;verticalAlign=top;childLayout=stackLayout;horizontal=1;startSize=26;horizontalStack=0;resizeParent=1;resizeLast=0;collapsible=1;marginBottom=0;rounded=0;shadow=0;strokeWidth=1;fontSize=16;container=0;" parent="WIyWlLk6GJQsqaUBKTNV-1" vertex="1">
          <mxGeometry x="500" y="320" width="295" height="110" as="geometry">
            <mxRectangle x="310" y="20" width="160" height="26" as="alternateBounds" />
          </mxGeometry>
        </mxCell>
        <mxCell id="zkfFHV4jXpPFQw0GAbJ--1" value="enum Pets, PackAnimals;" style="text;align=left;verticalAlign=top;spacingLeft=4;spacingRight=4;overflow=hidden;rotatable=0;points=[[0,0.5],[1,0.5]];portConstraint=eastwest;fontSize=14;container=0;strokeColor=default;" parent="zkfFHV4jXpPFQw0GAbJ--0" vertex="1">
          <mxGeometry y="26" width="295" height="24" as="geometry" />
        </mxCell>
        <mxCell id="9Qz7oygmxvyIA7aPLoJ9-54" value="getAnimalsClassesList(): List&lt;String&gt;" style="text;align=left;verticalAlign=top;spacingLeft=2;spacingRight=4;overflow=hidden;rotatable=0;points=[[0,0.5],[1,0.5]];portConstraint=eastwest;fontSize=14;container=0;" vertex="1" parent="zkfFHV4jXpPFQw0GAbJ--0">
          <mxGeometry y="50" width="295" height="24" as="geometry" />
        </mxCell>
        <mxCell id="9Qz7oygmxvyIA7aPLoJ9-55" value="&lt;span style=&quot;color: rgb(0, 0, 0); font-family: Helvetica; font-size: 14px; font-style: normal; font-variant-ligatures: normal; font-variant-caps: normal; font-weight: 400; letter-spacing: normal; orphans: 2; text-indent: 0px; text-transform: none; widows: 2; word-spacing: 0px; -webkit-text-stroke-width: 0px; white-space: nowrap; background-color: rgb(251, 251, 251); text-decoration-thickness: initial; text-decoration-style: initial; text-decoration-color: initial; float: none; display: inline !important;&quot;&gt;getAnimalsClass(choice):&amp;nbsp;&lt;/span&gt;&lt;span style=&quot;font-size: 14px;&quot;&gt;String&lt;/span&gt;" style="text;html=1;align=left;verticalAlign=middle;resizable=0;points=[];autosize=1;strokeColor=none;fillColor=none;spacingLeft=2;" vertex="1" parent="zkfFHV4jXpPFQw0GAbJ--0">
          <mxGeometry y="74" width="295" height="30" as="geometry" />
        </mxCell>
        <mxCell id="9Qz7oygmxvyIA7aPLoJ9-56" value="enum Pets" style="swimlane;fontStyle=3;align=center;verticalAlign=top;childLayout=stackLayout;horizontal=1;startSize=26;horizontalStack=0;resizeParent=1;resizeLast=0;collapsible=1;marginBottom=0;rounded=0;shadow=0;strokeWidth=1;fontSize=16;container=0;" vertex="1" parent="WIyWlLk6GJQsqaUBKTNV-1">
          <mxGeometry x="21" y="160" width="295" height="110" as="geometry">
            <mxRectangle x="310" y="20" width="160" height="26" as="alternateBounds" />
          </mxGeometry>
        </mxCell>
        <mxCell id="9Qz7oygmxvyIA7aPLoJ9-57" value="enum Dog, Cat, Hamster;" style="text;align=left;verticalAlign=top;spacingLeft=4;spacingRight=4;overflow=hidden;rotatable=0;points=[[0,0.5],[1,0.5]];portConstraint=eastwest;fontSize=14;container=0;strokeColor=default;" vertex="1" parent="9Qz7oygmxvyIA7aPLoJ9-56">
          <mxGeometry y="26" width="295" height="24" as="geometry" />
        </mxCell>
        <mxCell id="9Qz7oygmxvyIA7aPLoJ9-58" value="getPetsList(): List&lt;String&gt; " style="text;align=left;verticalAlign=top;spacingLeft=2;spacingRight=4;overflow=hidden;rotatable=0;points=[[0,0.5],[1,0.5]];portConstraint=eastwest;fontSize=14;container=0;" vertex="1" parent="9Qz7oygmxvyIA7aPLoJ9-56">
          <mxGeometry y="50" width="295" height="24" as="geometry" />
        </mxCell>
        <mxCell id="9Qz7oygmxvyIA7aPLoJ9-59" value="&lt;font style=&quot;font-size: 14px;&quot;&gt;&lt;span style=&quot;font-family: Helvetica; font-style: normal; font-variant-ligatures: normal; font-variant-caps: normal; font-weight: 400; letter-spacing: normal; orphans: 2; text-indent: 0px; text-transform: none; widows: 2; word-spacing: 0px; -webkit-text-stroke-width: 0px; white-space: nowrap; background-color: rgb(251, 251, 251); text-decoration-thickness: initial; text-decoration-style: initial; text-decoration-color: initial; float: none; display: inline !important;&quot;&gt;&lt;span style=&quot;font-family: Consolas, &amp;quot;Courier New&amp;quot;, monospace; white-space-collapse: preserve;&quot;&gt;getPet&lt;/span&gt;(choice):&amp;nbsp;&lt;/span&gt;String&lt;/font&gt;" style="text;html=1;align=left;verticalAlign=middle;resizable=0;points=[];autosize=1;strokeColor=none;fillColor=none;spacingLeft=2;" vertex="1" parent="9Qz7oygmxvyIA7aPLoJ9-56">
          <mxGeometry y="74" width="295" height="30" as="geometry" />
        </mxCell>
        <mxCell id="9Qz7oygmxvyIA7aPLoJ9-60" value="enum PackAnimals" style="swimlane;fontStyle=3;align=center;verticalAlign=top;childLayout=stackLayout;horizontal=1;startSize=26;horizontalStack=0;resizeParent=1;resizeLast=0;collapsible=1;marginBottom=0;rounded=0;shadow=0;strokeWidth=1;fontSize=16;container=0;" vertex="1" parent="WIyWlLk6GJQsqaUBKTNV-1">
          <mxGeometry x="511" y="160" width="295" height="110" as="geometry">
            <mxRectangle x="310" y="20" width="160" height="26" as="alternateBounds" />
          </mxGeometry>
        </mxCell>
        <mxCell id="9Qz7oygmxvyIA7aPLoJ9-61" value="enum Horse, Camel, Donkey;" style="text;align=left;verticalAlign=top;spacingLeft=4;spacingRight=4;overflow=hidden;rotatable=0;points=[[0,0.5],[1,0.5]];portConstraint=eastwest;fontSize=14;container=0;strokeColor=default;" vertex="1" parent="9Qz7oygmxvyIA7aPLoJ9-60">
          <mxGeometry y="26" width="295" height="24" as="geometry" />
        </mxCell>
        <mxCell id="9Qz7oygmxvyIA7aPLoJ9-62" value="getPackAnimalsList(): List&lt;String&gt; " style="text;align=left;verticalAlign=top;spacingLeft=2;spacingRight=4;overflow=hidden;rotatable=0;points=[[0,0.5],[1,0.5]];portConstraint=eastwest;fontSize=14;container=0;" vertex="1" parent="9Qz7oygmxvyIA7aPLoJ9-60">
          <mxGeometry y="50" width="295" height="24" as="geometry" />
        </mxCell>
        <mxCell id="9Qz7oygmxvyIA7aPLoJ9-63" value="&lt;font style=&quot;font-size: 14px;&quot;&gt;&lt;span style=&quot;font-family: Helvetica; font-style: normal; font-variant-ligatures: normal; font-variant-caps: normal; font-weight: 400; letter-spacing: normal; orphans: 2; text-indent: 0px; text-transform: none; widows: 2; word-spacing: 0px; -webkit-text-stroke-width: 0px; white-space: nowrap; background-color: rgb(251, 251, 251); text-decoration-thickness: initial; text-decoration-style: initial; text-decoration-color: initial; float: none; display: inline !important;&quot;&gt;&lt;span style=&quot;font-family: Consolas, &amp;quot;Courier New&amp;quot;, monospace; white-space-collapse: preserve;&quot;&gt;get&lt;/span&gt;PackAnimal&lt;/span&gt;&lt;/font&gt;&lt;span style=&quot;font-size: 14px;&quot;&gt;(choice):&amp;nbsp;&lt;/span&gt;&lt;span style=&quot;font-size: 14px; background-color: initial;&quot;&gt;String&lt;/span&gt;" style="text;html=1;align=left;verticalAlign=middle;resizable=0;points=[];autosize=1;strokeColor=none;fillColor=none;spacingLeft=2;" vertex="1" parent="9Qz7oygmxvyIA7aPLoJ9-60">
          <mxGeometry y="74" width="295" height="30" as="geometry" />
        </mxCell>
        <mxCell id="9Qz7oygmxvyIA7aPLoJ9-77" style="edgeStyle=orthogonalEdgeStyle;rounded=0;orthogonalLoop=1;jettySize=auto;html=1;exitX=0.5;exitY=1;exitDx=0;exitDy=0;entryX=0.5;entryY=0;entryDx=0;entryDy=0;" edge="1" parent="WIyWlLk6GJQsqaUBKTNV-1" source="9Qz7oygmxvyIA7aPLoJ9-64" target="zkfFHV4jXpPFQw0GAbJ--0">
          <mxGeometry relative="1" as="geometry">
            <Array as="points">
              <mxPoint x="414" y="290" />
              <mxPoint x="648" y="290" />
            </Array>
          </mxGeometry>
        </mxCell>
        <mxCell id="9Qz7oygmxvyIA7aPLoJ9-64" value="AnimalsTypes" style="swimlane;fontStyle=3;align=center;verticalAlign=top;childLayout=stackLayout;horizontal=1;startSize=26;horizontalStack=0;resizeParent=1;resizeLast=0;collapsible=1;marginBottom=0;rounded=0;shadow=0;strokeWidth=1;fontSize=16;container=0;spacingLeft=2;" vertex="1" parent="WIyWlLk6GJQsqaUBKTNV-1">
          <mxGeometry x="203" y="30" width="422" height="90" as="geometry">
            <mxRectangle x="310" y="20" width="160" height="26" as="alternateBounds" />
          </mxGeometry>
        </mxCell>
        <mxCell id="9Qz7oygmxvyIA7aPLoJ9-68" value="&lt;div style=&quot;font-size: 14px; line-height: 19px; white-space-collapse: preserve;&quot;&gt;&lt;span style=&quot;background-color: rgb(255, 255, 255);&quot;&gt;getAnimalsType(int classChoice, int typeChoice): &lt;/span&gt;&lt;span style=&quot;background-color: rgb(255, 255, 255);&quot;&gt;String &lt;/span&gt;&lt;/div&gt;" style="text;html=1;align=left;verticalAlign=middle;resizable=0;points=[];autosize=1;strokeColor=none;fillColor=none;" vertex="1" parent="9Qz7oygmxvyIA7aPLoJ9-64">
          <mxGeometry y="26" width="422" height="30" as="geometry" />
        </mxCell>
        <mxCell id="9Qz7oygmxvyIA7aPLoJ9-69" value="&lt;div style=&quot;font-size: 14px; line-height: 19px; white-space-collapse: preserve;&quot;&gt;&lt;span style=&quot;background-color: rgb(255, 255, 255);&quot;&gt;&lt;font face=&quot;Helvetica&quot;&gt;getAnimalsTypesList(int classChoice): &lt;/font&gt;&lt;/span&gt;&lt;span style=&quot;background-color: rgb(255, 255, 255);&quot;&gt;List&amp;lt;String&amp;gt; &lt;/span&gt;&lt;/div&gt;" style="text;html=1;align=left;verticalAlign=middle;resizable=0;points=[];autosize=1;strokeColor=none;fillColor=none;" vertex="1" parent="9Qz7oygmxvyIA7aPLoJ9-64">
          <mxGeometry y="56" width="422" height="30" as="geometry" />
        </mxCell>
        <mxCell id="9Qz7oygmxvyIA7aPLoJ9-70" style="edgeStyle=orthogonalEdgeStyle;rounded=0;orthogonalLoop=1;jettySize=auto;html=1;exitX=0.5;exitY=0;exitDx=0;exitDy=0;entryX=-0.004;entryY=0.431;entryDx=0;entryDy=0;entryPerimeter=0;" edge="1" parent="WIyWlLk6GJQsqaUBKTNV-1" source="9Qz7oygmxvyIA7aPLoJ9-56" target="9Qz7oygmxvyIA7aPLoJ9-68">
          <mxGeometry relative="1" as="geometry">
            <Array as="points">
              <mxPoint x="168" y="69" />
            </Array>
          </mxGeometry>
        </mxCell>
        <mxCell id="9Qz7oygmxvyIA7aPLoJ9-71" style="edgeStyle=orthogonalEdgeStyle;rounded=0;orthogonalLoop=1;jettySize=auto;html=1;exitX=0.5;exitY=0;exitDx=0;exitDy=0;entryX=1.01;entryY=0.328;entryDx=0;entryDy=0;entryPerimeter=0;" edge="1" parent="WIyWlLk6GJQsqaUBKTNV-1" source="9Qz7oygmxvyIA7aPLoJ9-60" target="9Qz7oygmxvyIA7aPLoJ9-68">
          <mxGeometry relative="1" as="geometry">
            <Array as="points">
              <mxPoint x="658" y="66" />
            </Array>
          </mxGeometry>
        </mxCell>
        <mxCell id="9Qz7oygmxvyIA7aPLoJ9-78" style="edgeStyle=orthogonalEdgeStyle;rounded=0;orthogonalLoop=1;jettySize=auto;html=1;exitX=0.5;exitY=0;exitDx=0;exitDy=0;entryX=0.5;entryY=1;entryDx=0;entryDy=0;" edge="1" parent="WIyWlLk6GJQsqaUBKTNV-1" source="9Qz7oygmxvyIA7aPLoJ9-73" target="9Qz7oygmxvyIA7aPLoJ9-64">
          <mxGeometry relative="1" as="geometry">
            <Array as="points">
              <mxPoint x="232" y="290" />
              <mxPoint x="414" y="290" />
            </Array>
          </mxGeometry>
        </mxCell>
        <mxCell id="9Qz7oygmxvyIA7aPLoJ9-73" value="AnimalsList" style="swimlane;fontStyle=3;align=center;verticalAlign=top;childLayout=stackLayout;horizontal=1;startSize=26;horizontalStack=0;resizeParent=1;resizeLast=0;collapsible=1;marginBottom=0;rounded=0;shadow=0;strokeWidth=1;fontSize=16;container=0;spacingLeft=4;" vertex="1" parent="WIyWlLk6GJQsqaUBKTNV-1">
          <mxGeometry x="110" y="320" width="259" height="176" as="geometry">
            <mxRectangle x="310" y="20" width="160" height="26" as="alternateBounds" />
          </mxGeometry>
        </mxCell>
        <mxCell id="9Qz7oygmxvyIA7aPLoJ9-74" value="&lt;div style=&quot;font-size: 14px; line-height: 19px; white-space-collapse: preserve;&quot;&gt;&lt;div style=&quot;line-height: 19px;&quot;&gt;&lt;span style=&quot;background-color: rgb(255, 255, 255);&quot;&gt;&lt;font face=&quot;Helvetica&quot;&gt;animalsList: &lt;/font&gt;&lt;/span&gt;&lt;span style=&quot;background-color: rgb(255, 255, 255);&quot;&gt;List&amp;lt;Animal&amp;gt; &lt;/span&gt;&lt;/div&gt;&lt;/div&gt;" style="text;html=1;align=left;verticalAlign=middle;resizable=0;points=[];autosize=1;strokeColor=default;" vertex="1" parent="9Qz7oygmxvyIA7aPLoJ9-73">
          <mxGeometry y="26" width="259" height="30" as="geometry" />
        </mxCell>
        <mxCell id="9Qz7oygmxvyIA7aPLoJ9-75" value="&lt;div style=&quot;font-size: 14px; line-height: 19px; white-space-collapse: preserve;&quot;&gt;&lt;div style=&quot;line-height: 19px;&quot;&gt;&lt;span style=&quot;background-color: rgb(255, 255, 255);&quot;&gt;&lt;font face=&quot;Helvetica&quot;&gt;getAllAnimalsInfo(): &lt;/font&gt;&lt;/span&gt;&lt;span style=&quot;background-color: rgb(255, 255, 255);&quot;&gt;String &lt;/span&gt;&lt;/div&gt;&lt;/div&gt;" style="text;html=1;align=left;verticalAlign=middle;resizable=0;points=[];autosize=1;strokeColor=none;fillColor=none;" vertex="1" parent="9Qz7oygmxvyIA7aPLoJ9-73">
          <mxGeometry y="56" width="259" height="30" as="geometry" />
        </mxCell>
        <mxCell id="9Qz7oygmxvyIA7aPLoJ9-76" value="&lt;div style=&quot;font-size: 14px; line-height: 19px; white-space-collapse: preserve;&quot;&gt;&lt;span style=&quot;background-color: rgb(255, 255, 255);&quot;&gt;&lt;font face=&quot;Helvetica&quot;&gt;addAnimal(Animal): boolean&lt;/font&gt;&lt;/span&gt;&lt;/div&gt;" style="text;html=1;align=left;verticalAlign=middle;resizable=0;points=[];autosize=1;strokeColor=none;fillColor=none;" vertex="1" parent="9Qz7oygmxvyIA7aPLoJ9-73">
          <mxGeometry y="86" width="259" height="30" as="geometry" />
        </mxCell>
        <mxCell id="9Qz7oygmxvyIA7aPLoJ9-79" value="&lt;span style=&quot;font-size: 14px; white-space-collapse: preserve; background-color: rgb(255, 255, 255);&quot;&gt;delAnimal(Animal): boolean&lt;/span&gt;" style="text;html=1;align=left;verticalAlign=middle;resizable=0;points=[];autosize=1;strokeColor=none;fillColor=none;" vertex="1" parent="9Qz7oygmxvyIA7aPLoJ9-73">
          <mxGeometry y="116" width="259" height="30" as="geometry" />
        </mxCell>
        <mxCell id="9Qz7oygmxvyIA7aPLoJ9-80" value="&lt;div style=&quot;font-size: 14px; line-height: 19px; white-space-collapse: preserve;&quot;&gt;&lt;span style=&quot;background-color: rgb(255, 255, 255);&quot;&gt;&lt;font face=&quot;Helvetica&quot;&gt;getSize(): &lt;/font&gt;&lt;/span&gt;&lt;span style=&quot;background-color: rgb(255, 255, 255);&quot;&gt;int &lt;/span&gt;&lt;/div&gt;" style="text;html=1;align=left;verticalAlign=middle;resizable=0;points=[];autosize=1;strokeColor=none;fillColor=none;" vertex="1" parent="9Qz7oygmxvyIA7aPLoJ9-73">
          <mxGeometry y="146" width="259" height="30" as="geometry" />
        </mxCell>
        <mxCell id="9Qz7oygmxvyIA7aPLoJ9-95" style="edgeStyle=orthogonalEdgeStyle;rounded=0;orthogonalLoop=1;jettySize=auto;html=1;exitX=0.5;exitY=0;exitDx=0;exitDy=0;entryX=0.5;entryY=1;entryDx=0;entryDy=0;" edge="1" parent="WIyWlLk6GJQsqaUBKTNV-1" source="9Qz7oygmxvyIA7aPLoJ9-81" target="zkfFHV4jXpPFQw0GAbJ--0">
          <mxGeometry relative="1" as="geometry">
            <Array as="points">
              <mxPoint x="414" y="530" />
              <mxPoint x="647" y="530" />
            </Array>
          </mxGeometry>
        </mxCell>
        <mxCell id="9Qz7oygmxvyIA7aPLoJ9-81" value="Animal" style="swimlane;fontStyle=3;align=center;verticalAlign=top;childLayout=stackLayout;horizontal=1;startSize=26;horizontalStack=0;resizeParent=1;resizeLast=0;collapsible=1;marginBottom=0;rounded=0;shadow=0;strokeWidth=1;fontSize=16;container=0;spacingLeft=4;labelBackgroundColor=none;textShadow=0;fillColor=none;" vertex="1" parent="WIyWlLk6GJQsqaUBKTNV-1">
          <mxGeometry x="239" y="560" width="350" height="200" as="geometry">
            <mxRectangle x="310" y="20" width="160" height="26" as="alternateBounds" />
          </mxGeometry>
        </mxCell>
        <mxCell id="9Qz7oygmxvyIA7aPLoJ9-82" value="&lt;div style=&quot;font-size: 14px; line-height: 19px; white-space-collapse: preserve;&quot;&gt;&lt;div style=&quot;line-height: 19px; font-size: 14px;&quot;&gt;&lt;div style=&quot;line-height: 19px; font-size: 14px;&quot;&gt;&lt;div style=&quot;font-size: 14px;&quot;&gt;&lt;span style=&quot;background-color: rgb(255, 255, 255); font-size: 14px;&quot;&gt;&lt;font style=&quot;font-size: 14px;&quot; face=&quot;Helvetica&quot;&gt;animalsClass: &lt;/font&gt;&lt;/span&gt;&lt;span style=&quot;background-color: rgb(255, 255, 255); font-size: 14px;&quot;&gt;String &lt;/span&gt;&lt;/div&gt;&lt;div style=&quot;font-size: 14px;&quot;&gt;&lt;span style=&quot;background-color: rgb(255, 255, 255); font-size: 14px;&quot;&gt;&lt;font face=&quot;Helvetica&quot; style=&quot;font-size: 14px;&quot;&gt;animalsType: &lt;/font&gt;&lt;/span&gt;&lt;span style=&quot;background-color: rgb(255, 255, 255); font-size: 14px;&quot;&gt;String &lt;/span&gt;&lt;/div&gt;&lt;div style=&quot;font-size: 14px;&quot;&gt;&lt;span style=&quot;background-color: rgb(255, 255, 255); font-size: 14px;&quot;&gt;&lt;font style=&quot;font-size: 14px;&quot; face=&quot;Helvetica&quot;&gt;&lt;font style=&quot;font-size: 14px;&quot;&gt;name: &lt;/font&gt;&lt;/font&gt;&lt;/span&gt;&lt;span style=&quot;background-color: rgb(255, 255, 255); font-size: 14px;&quot;&gt;String &lt;/span&gt;&lt;/div&gt;&lt;div style=&quot;font-size: 14px;&quot;&gt;&lt;span style=&quot;background-color: rgb(255, 255, 255); font-size: 14px;&quot;&gt;&lt;font face=&quot;Helvetica&quot; style=&quot;font-size: 14px;&quot;&gt;birthday: &lt;/font&gt;&lt;/span&gt;&lt;span style=&quot;background-color: rgb(255, 255, 255); font-size: 14px;&quot;&gt;LocalDate &lt;/span&gt;&lt;/div&gt;&lt;div style=&quot;font-size: 14px;&quot;&gt;&lt;span style=&quot;background-color: rgb(255, 255, 255); font-size: 14px;&quot;&gt;&lt;font face=&quot;Helvetica&quot; style=&quot;font-size: 14px;&quot;&gt;commandsList: &lt;/font&gt;&lt;/span&gt;&lt;span style=&quot;background-color: rgb(255, 255, 255); font-size: 14px;&quot;&gt;String &lt;/span&gt;&lt;/div&gt;&lt;/div&gt;&lt;/div&gt;&lt;/div&gt;" style="text;html=1;align=left;verticalAlign=middle;resizable=0;points=[];autosize=1;strokeColor=default;fontSize=14;" vertex="1" parent="9Qz7oygmxvyIA7aPLoJ9-81">
          <mxGeometry y="26" width="350" height="110" as="geometry" />
        </mxCell>
        <mxCell id="9Qz7oygmxvyIA7aPLoJ9-83" value="&lt;div style=&quot;font-size: 14px; line-height: 19px; white-space-collapse: preserve;&quot;&gt;&lt;div style=&quot;line-height: 19px; font-size: 14px;&quot;&gt;&lt;div style=&quot;line-height: 19px; font-size: 14px;&quot;&gt;&lt;font style=&quot;background-color: rgb(255, 255, 255); font-size: 14px;&quot; face=&quot;Helvetica&quot;&gt;getCommandsList(): &lt;/font&gt;&lt;span style=&quot;background-color: rgb(255, 255, 255);&quot;&gt;String &lt;/span&gt;&lt;/div&gt;&lt;/div&gt;&lt;/div&gt;" style="text;html=1;align=left;verticalAlign=middle;resizable=0;points=[];autosize=1;strokeColor=none;fillColor=none;fontSize=14;" vertex="1" parent="9Qz7oygmxvyIA7aPLoJ9-81">
          <mxGeometry y="136" width="350" height="30" as="geometry" />
        </mxCell>
        <mxCell id="9Qz7oygmxvyIA7aPLoJ9-84" value="&lt;div style=&quot;font-size: 14px; line-height: 19px; white-space-collapse: preserve;&quot;&gt;&lt;div style=&quot;line-height: 19px; font-size: 14px;&quot;&gt;&lt;font style=&quot;background-color: rgb(255, 255, 255); font-size: 14px;&quot; face=&quot;Helvetica&quot;&gt;setCommandsList(String newCommands): &lt;/font&gt;&lt;span style=&quot;background-color: rgb(255, 255, 255);&quot;&gt;boolean &lt;/span&gt;&lt;/div&gt;&lt;/div&gt;" style="text;html=1;align=left;verticalAlign=middle;resizable=0;points=[];autosize=1;strokeColor=none;fillColor=none;fontSize=14;" vertex="1" parent="9Qz7oygmxvyIA7aPLoJ9-81">
          <mxGeometry y="166" width="350" height="30" as="geometry" />
        </mxCell>
        <mxCell id="9Qz7oygmxvyIA7aPLoJ9-96" style="edgeStyle=orthogonalEdgeStyle;rounded=0;orthogonalLoop=1;jettySize=auto;html=1;exitX=0.5;exitY=0;exitDx=0;exitDy=0;entryX=0.479;entryY=1.067;entryDx=0;entryDy=0;entryPerimeter=0;" edge="1" parent="WIyWlLk6GJQsqaUBKTNV-1" source="9Qz7oygmxvyIA7aPLoJ9-81" target="9Qz7oygmxvyIA7aPLoJ9-80">
          <mxGeometry relative="1" as="geometry" />
        </mxCell>
        <mxCell id="9Qz7oygmxvyIA7aPLoJ9-97" style="edgeStyle=orthogonalEdgeStyle;rounded=0;orthogonalLoop=1;jettySize=auto;html=1;exitX=0.5;exitY=0;exitDx=0;exitDy=0;entryX=0.5;entryY=1.2;entryDx=0;entryDy=0;entryPerimeter=0;" edge="1" parent="WIyWlLk6GJQsqaUBKTNV-1" source="9Qz7oygmxvyIA7aPLoJ9-81" target="9Qz7oygmxvyIA7aPLoJ9-69">
          <mxGeometry relative="1" as="geometry" />
        </mxCell>
      </root>
    </mxGraphModel>
  </diagram>
</mxfile>
